<svg width="52" height="52" viewBox="0 0 52 52" fill="none" xmlns="http://www.w3.org/2000/svg">
<path d="M49.0813 31.6134C49.0813 33.388 47.6491 34.8318 45.8895 34.8318H10.4804C10.4797 34.8318 10.4791 34.8318 10.4784 34.8318H6.11047C4.35082 34.8318 2.9187 33.388 2.9187 31.6134V19.3206C2.9187 18.7511 3.37818 18.2872 3.94373 18.2872H6.06803C6.71978 18.2872 7.09306 18.9002 7.09306 19.9696V25.4519V29.1182C7.09306 29.5834 8.03388 30.2699 8.87923 30.2699H43.1207C43.9661 30.2699 44.9069 29.5834 44.9069 29.1182V25.4519V19.9696C44.9069 18.9002 45.2802 18.2872 45.9319 18.2872H48.0562C48.6218 18.2872 49.0813 18.7511 49.0813 19.3206V31.6134ZM45.625 39.4224C45.4672 39.6082 45.2384 39.7145 44.9739 39.7145C44.6755 39.7145 44.3997 39.5514 44.2538 39.2894L42.2422 35.6773H45.3312L45.8126 38.7513C45.8504 38.992 45.7821 39.2373 45.625 39.4224ZM7.74613 39.2894C7.60027 39.5514 7.32446 39.7145 7.00356 39.7145C6.76155 39.7145 6.53281 39.6082 6.37502 39.4224C6.21788 39.2373 6.14959 38.992 6.18738 38.7513L6.66873 35.6773H9.75772L7.74613 39.2894ZM7.93178 15.3549C7.93178 14.236 8.83547 13.3249 9.94536 13.3249H17.405C18.5149 13.3249 19.4179 14.236 19.4179 15.3549V25.0295H7.93178V19.9696V15.3549ZM22.2702 13.3249H29.7298C30.8397 13.3249 31.7427 14.236 31.7427 15.3549V25.0295H20.2573V15.3549C20.2573 14.236 21.1603 13.3249 22.2702 13.3249ZM34.595 13.3249H42.0546C43.1645 13.3249 44.0682 14.236 44.0682 15.3549V19.9696V25.0295H32.5821V15.3549C32.5821 14.236 33.4851 13.3249 34.595 13.3249ZM7.93178 25.875H44.0682V28.9972C43.9343 29.1356 43.5524 29.4243 43.1207 29.4243H8.87923C8.4476 29.4243 8.06571 29.1356 7.93178 28.9972V25.875ZM48.0562 17.4417H45.9319C45.5792 17.4417 45.2172 17.5439 44.9069 17.7799V15.3549C44.9069 13.7694 43.6273 12.4801 42.0546 12.4801H34.595C33.5673 12.4801 32.6643 13.0308 32.1624 13.8557C31.6605 13.0308 30.7575 12.4801 29.7298 12.4801H22.2702C21.2425 12.4801 20.3395 13.0308 19.8376 13.8557C19.3357 13.0308 18.4326 12.4801 17.405 12.4801H9.94536C8.37269 12.4801 7.09306 13.7694 7.09306 15.3549V17.7799C6.78277 17.5439 6.42076 17.4417 6.06803 17.4417H3.94373C2.91605 17.4417 2.07999 18.2845 2.07999 19.3206V31.6134C2.07999 33.7563 3.73356 35.5155 5.8214 35.6653L5.35861 38.6197C5.28236 39.1049 5.42093 39.5982 5.73785 39.9719C6.05478 40.3455 6.51557 40.5601 7.02609 40.5601C7.62745 40.5601 8.18372 40.2319 8.47744 39.7032L10.7198 35.6773H41.2802L43.5225 39.7032C43.8162 40.2319 44.3725 40.5601 44.9964 40.5601C45.4844 40.5601 45.9452 40.3455 46.2621 39.9719C46.579 39.5982 46.7176 39.1049 46.6414 38.6197L46.1786 35.6653C48.2664 35.5155 49.92 33.7563 49.92 31.6134V19.3206C49.92 18.2845 49.0839 17.4417 48.0562 17.4417Z" fill="#3A98B2"/>
</svg>
