<svg width="43" height="43" viewBox="0 0 43 43" fill="none" xmlns="http://www.w3.org/2000/svg">
<path d="M31.738 15.677C30.0411 15.677 28.6667 17.0525 28.6667 18.7483C28.6667 20.4447 30.0412 21.8196 31.738 21.8196C33.4344 21.8196 34.8093 20.4447 34.8093 18.7483C34.8093 17.0524 33.4344 15.677 31.738 15.677ZM31.738 20.2841C30.8914 20.2841 30.2023 19.595 30.2023 18.7484C30.2023 17.9017 30.8914 17.2127 31.738 17.2127C32.5846 17.2127 33.2736 17.9017 33.2736 18.7484C33.2736 19.595 32.5846 20.2841 31.738 20.2841Z" fill="#3A98B2"/>
<path d="M10.3662 7.99878C8.95182 7.99878 7.8072 9.14382 7.8072 10.5578C7.8072 11.9717 8.9519 13.1178 10.3662 13.1178C11.7806 13.1178 12.9262 11.9716 12.9262 10.5578C12.9262 9.1439 11.7806 7.99878 10.3662 7.99878ZM10.3662 11.5821C9.80166 11.5821 9.34293 11.123 9.34293 10.5579C9.34293 9.99323 9.80166 9.5346 10.3662 9.5346C10.9313 9.5346 11.3905 9.99323 11.3905 10.5579C11.3905 11.123 10.9313 11.5821 10.3662 11.5821Z" fill="#3A98B2"/>
<path d="M40.9636 7.26881L30.7019 6.16979C30.1419 6.10991 29.4043 6.07976 28.6662 6.07976C27.928 6.07976 27.1904 6.10991 26.6304 6.16979L16.3686 7.26881C16.1864 7.28821 15.9816 7.30358 15.7676 7.31693C14.5718 5.56888 12.5402 4.41553 10.2378 4.41553C8.30638 4.41553 6.57009 5.23202 5.35341 6.52496L2.03586 6.16971C1.96263 6.16156 1.89099 6.15795 1.81977 6.15795C0.801125 6.15803 0 6.94631 0 7.9993V35.1293C0 36.2555 0.915764 37.2751 2.03578 37.3954L12.2976 38.4945C12.8576 38.5544 13.5952 38.5845 14.3333 38.5845C15.0715 38.5845 15.8091 38.5544 16.3691 38.4945L26.6309 37.3954C27.1909 37.3355 27.9285 37.3053 28.6667 37.3053C29.4048 37.3053 30.1424 37.3355 30.7024 37.3954L40.9642 38.4945C41.0375 38.5021 41.1091 38.5057 41.1803 38.5057C42.199 38.5057 43 37.718 43 36.6645V9.53445C42.9993 8.40822 42.0837 7.38907 40.9636 7.26881ZM13.5659 37.0355C13.1492 37.0227 12.7643 37.0001 12.4617 36.9675L2.20064 35.8673C1.85924 35.8309 1.53674 35.4721 1.53674 35.1286V7.99871C1.53674 7.80471 1.64013 7.69318 1.82086 7.69318L1.8736 7.6962L4.32762 7.95933C3.85513 8.85468 3.58436 9.86719 3.58436 10.9426C3.58436 14.1352 8.18619 19.2975 9.1091 20.2999L10.2388 21.5285L11.3684 20.3005C11.7201 19.9191 12.6052 18.9322 13.5659 17.6832V37.0355ZM10.2387 19.2602C10.2387 19.2602 5.11985 13.698 5.11985 10.9425C5.11985 8.18449 7.41262 5.95118 10.2387 5.95118C13.0653 5.95118 15.3575 8.18457 15.3575 10.9425C15.3575 13.698 10.2387 19.2602 10.2387 19.2602ZM27.8987 35.7811C27.3664 35.7956 26.8719 35.8238 26.4675 35.8673L16.2053 36.9664C15.9033 36.9986 15.5178 37.0211 15.1017 37.0344V15.4993C16.0962 13.933 16.8933 12.2683 16.8933 10.9425C16.8933 10.19 16.7561 9.47028 16.5165 8.79724C16.5216 8.79665 16.5273 8.79623 16.5329 8.79564L26.7951 7.69654C27.0971 7.66429 27.4821 7.64228 27.8987 7.62851V12.6215C25.607 13.9518 24.0595 16.4269 24.0595 19.2611C24.0595 21.5656 26.0748 24.7838 27.8987 27.2255V35.7811ZM25.5953 19.2607C25.5953 15.8669 28.3451 13.118 31.738 13.118C35.1303 13.118 37.8807 15.8668 37.8807 19.2607C37.8807 22.6519 31.738 29.4979 31.738 29.4979C31.738 29.4979 25.5953 22.6519 25.5953 19.2607ZM41.4638 36.6643H41.4638C41.4638 36.8583 41.3604 36.9698 41.1796 36.9698L41.1269 36.9668L30.8657 35.8677C30.4608 35.8242 29.9663 35.7955 29.4339 35.7807V29.1738C29.9499 29.7962 30.3676 30.2703 30.5949 30.5237L31.738 31.7972L32.8806 30.5237C33.9725 29.3074 39.4164 23.0482 39.4164 19.2607C39.4164 15.0269 35.972 11.5825 31.7381 11.5825C30.936 11.5825 30.1625 11.7074 29.4347 11.9367V7.62818C29.8514 7.64153 30.2363 7.66404 30.5388 7.6962L40.8 8.7953C41.1414 8.83217 41.4639 9.19146 41.4639 9.53445V36.6643H41.4638Z" fill="#3A98B2"/>
</svg>
